M48
;Layer_Color=9474304
;FILE_FORMAT=2:5
INCH,TZ
;TYPE=PLATED
T1F00S00C0.01600
T2F00S00C0.02362
T3F00S00C0.04016
T4F00S00C0.17717
%
T01
X379528Y72835
X383465
X387402
Y77165
X383465
X379528
Y81496
X383465
X387402
X392126
X396063
X400000
Y77165
X396063
X392126
Y72835
X396063
X400000
X251969
X248031
X244094
Y77165
X248031
X251969
Y81496
X248031
X244094
X239370
X235433
X231496
Y77165
X235433
X239370
Y72835
X235433
X231496
X103937
X100000
X96063
Y77165
X100000
X103937
Y81496
X100000
X96063
X91339
X87402
X83465
Y77165
X87402
X91339
Y72835
X87402
X83465
X99410Y93110
X122047Y95531
Y90531
X130315Y106890
X111221Y136811
X111614Y149213
X122047
Y167913
X127165Y170866
X131496Y164961
X109055
Y161221
X99606Y162598
Y157087
X96063
X99606Y153150
X90551
X82677Y156102
X78740
X75590Y166929
Y170866
X65748Y170079
X64173Y174016
X65748Y177953
X58071Y188583
X48228
X62992Y196457
Y201537
X73622Y199803
X72835Y219685
X72441Y223622
X60571
X65551Y216142
X33465Y219685
X33071Y223622
X33465Y170079
X43307Y149213
X50787Y154134
X55512
X62992Y134646
X82677Y136811
Y121063
X87598Y117717
X62992Y109843
X57087Y106890
X52756Y111417
X48228Y86221
X96457Y143307
X100394
X99606Y168504
X96063Y165945
X96850Y172835
X86024
X87795Y166929
X87598Y188583
X97441
X102362
X107283
X109449Y181496
X112205Y177953
X126969Y188583
X116929Y199213
X102362Y200787
Y196457
X104921Y216142
X112205Y219685
X111811Y223622
X99941Y223622
X139311
X144291Y216142
X141732Y200394
Y196457
Y192520
Y173228
Y157087
X152583Y164961
X154724Y147245
X151181Y146063
X163386Y143307
X156496Y117717
X149606Y122638
X152756Y85827
X156496
X196260Y86221
X205118Y106890
X200787Y111417
X211024Y109843
Y134646
X230709Y136811
Y121063
X235630Y117717
X244488Y143307
X248425
X247638Y153150
Y157087
X244094
Y165945
X247638Y168504
Y162598
X257087Y161221
Y164961
X270079Y167913
X275197Y170866
X279528Y164961
X289764Y157087
Y173228
Y192520
Y196457
Y200394
X292323Y216142
X287343Y223622
X259842Y223622
X260236Y219685
X252953Y216142
X247972Y223622
X250394Y200787
Y196457
Y188583
X245472
X235630
X234055Y172835
X235827Y166929
X223622
Y170866
X213779Y170079
X212205Y174016
X213779Y177953
X206102Y188583
X196260
X211024Y196457
Y201537
X221654Y199803
X220866Y219685
X220472Y223622
X208602
X213583Y216142
X181496Y219685
X181102Y223622
X181496Y170079
X191339Y149213
X198819Y154134
X203543
X226772Y156102
X230709
X238583Y153150
X259646Y149213
X270079
X259252Y136811
X260236Y177953
X257480Y181496
X255315Y188583
X275000
X264960Y199213
X244882Y172835
X247441Y93110
X270079Y95531
Y90531
X278346Y106890
X297638Y122638
X304528Y117717
X302756Y147245
X299213Y146063
X311417Y143307
X300615Y164961
X329528Y170079
X339370Y149213
X346850Y154134
X351575
X374803Y156102
X378740
X386614Y153150
X395669
Y157087
X392126
Y165945
X395669Y168504
Y162598
X405118Y161221
Y164961
X418110Y167913
X423228Y170866
X427559Y164961
X437795Y157087
Y173228
X448646Y164961
X447244Y146063
X445669Y122638
X426378Y106890
X418110Y95531
Y90531
X395472Y93110
X383661Y117717
X378740Y121063
Y136811
X392520Y143307
X396457
X407677Y149213
X418110
X407283Y136811
X408268Y177953
X405512Y181496
X403346Y188583
X398425
X393504
X383661
X382087Y172835
X383858Y166929
X371654
Y170866
X361811Y170079
X360236Y174016
X361811Y177953
X354134Y188583
X344291
X359055Y196457
Y201537
X369685Y199803
X368898Y219685
X368504Y223622
X356634
X361614Y216142
X329528Y219685
X329134Y223622
X396004
X407874Y223622
X408268Y219685
X400984Y216142
X398425Y200787
Y196457
X412992Y199213
X423032Y188583
X437795Y192520
Y196457
Y200394
X440354Y216142
X435374Y223622
X392913Y172835
X359055Y134646
Y109843
X353150Y106890
X348819Y111417
X344291Y86221
X304528Y85827
X300787
X448819
X452559
X452559Y117717
X450787Y147245
X459449Y143307
X455905Y350984
X451968
X453937Y353937
X450000
Y359842
Y365748
X451968Y369685
Y374213
Y378740
X457480
Y374213
Y369685
X418110
Y374213
Y378740
X412598
Y374213
Y369685
X410630Y365748
Y359842
Y353937
X414567
X416535Y350984
X412598
X406299Y341142
X402362
X404331Y338189
X408268
Y332283
Y326378
X406299Y322441
Y317913
Y313386
X400787
Y317913
Y322441
X402362Y295866
X406299
X404331Y292913
X406299Y289961
X402362
X404331Y287008
X396850Y293701
X390551Y289764
X386614
X382677
X366929Y289961
X362992
X364961Y292913
X362992Y295866
X366929
X364961Y287008
X357480Y293701
X351181Y289764
X347244
X343307
X327559Y289961
X323622
X325591Y292913
X327559Y295866
X323622
X325591Y287008
X324606Y271260
X321654Y259449
X339370
X349213Y267323
Y251575
Y240354
X361024Y251575
Y259449
X363976Y271260
X378740Y259449
X388583Y267323
X388583Y251575
X388583Y240354
X400394Y251575
Y259449
X403346Y271260
X418110Y259449
X427953Y267323
X427953Y251575
Y240551
X439764Y251575
X436221Y293701
X429921Y289764
X425984
X422047
X366929Y313386
Y317913
Y322441
X361417Y322441
Y317913
Y313386
X368898Y326378
Y332283
Y338189
X364961
X362992Y341142
X366929
X373228Y350984
X377165
X375197Y353937
X371260
Y359842
Y365748
X373228Y369685
Y374213
Y378740
X378740
Y374213
Y369685
X309449
Y374213
Y378740
X303937
Y374213
Y369685
X301969Y365748
Y359842
Y353937
X305906
X303937Y350984
X307874
X323622Y341142
X327559
X325591Y338189
X329528
Y332283
Y326378
X327559Y322441
Y317913
Y313386
X322047
Y317913
Y322441
X288189Y293701
X281890Y289764
X277953
X274016
X258268Y289961
X254331
X256299Y292913
X258268Y295866
X254331
X248819Y293701
X242520Y289764
X238583
X234646
X218898Y289961
X214961
X216929Y292913
X214961Y295866
X218898
X216929Y287008
X209449Y293701
X203150Y289764
X199213
X195276
X179528Y289961
X175591
X177559Y292913
X179528Y295866
X175591
X177559Y287008
X176575Y271260
X173622Y259449
X191339
X201181Y267323
Y251575
Y240354
X212992Y251575
Y259449
X215945Y271260
X230709Y259449
X240551Y267323
X240551Y251575
X240551Y240354
X252362Y251575
Y259449
X255315Y271260
X256299Y287008
X258268Y313386
Y317913
Y322441
X252756
Y317913
Y313386
X260236Y326378
Y332283
Y338189
X256299
X258268Y341142
X254331
X264567Y350984
X268504
X266535Y353937
X262598
Y359842
Y365748
X264567Y369685
Y374213
Y378740
X270079
Y374213
Y369685
X230709
Y374213
Y378740
X225197
Y374213
Y369685
X223228Y365748
Y359842
Y353937
X227165
X225197Y350984
X229134
X218898Y341142
X214961
X216929Y338189
X220866
Y332283
Y326378
X218898Y322441
Y317913
Y313386
X213386
Y317913
Y322441
X179528
Y317913
Y313386
X174016
Y317913
Y322441
X181496Y326378
Y332283
Y338189
X177559
X179528Y341142
X175591
X159843Y350984
X155905
X157874Y353937
X153937
Y359842
Y365748
X155905Y369685
Y374213
Y378740
X161417
Y374213
Y369685
X140157Y293701
X143701Y251575
X270079Y259449
X279921Y267323
X279921Y251575
Y240551
X291732Y251575
X131890
Y240551
X131890Y267323
X122047Y259449
X104331
Y251575
X92520
X92520Y240354
Y267323
X82677Y259449
X64961
Y251575
X53150
Y240354
Y267323
X43307Y259449
X25591
X28543Y271260
X29528Y287008
X31496Y289961
X27559
X29528Y292913
X31496Y295866
X27559
X25984Y313386
Y317913
Y322441
X31496
Y317913
Y313386
X33465Y326378
Y332283
Y338189
X29528
X31496Y341142
X27559
X66929
X70866
X68898Y338189
X72835
Y332283
Y326378
X70866Y322441
Y317913
Y313386
X65354
Y317913
Y322441
X66929Y295866
X70866
X68898Y292913
X66929Y289961
X70866
X68898Y287008
X61417Y293701
X55118Y289764
X51181
X47244
X67913Y271260
X86614Y289764
X90551
X94488
X100787Y293701
X106299Y295866
X110236
X108268Y292913
X110236Y289961
X106299
X108268Y287008
X107283Y271260
X125984Y289764
X129921
X133858
X110236Y313386
Y317913
Y322441
X104724
Y317913
Y313386
X112205Y326378
Y332283
Y338189
X108268
X110236Y341142
X106299
X116535Y350984
X120472
X118504Y353937
X114567
Y359842
Y365748
X116535Y369685
Y374213
Y378740
X122047
Y374213
Y369685
X82677
Y374213
Y378740
X77165
Y374213
Y369685
X75197Y365748
Y359842
Y353937
X79134
X77165Y350984
X81102
Y396260
X77165
X79134Y399213
X77165Y402165
X81102
X79134Y405118
X86614Y398425
X92913Y402362
X96850
X100787
X116535Y402165
X120472
X118504Y399213
X120472Y396260
X116535
X118504Y405118
X125984Y398425
X132283Y402362
X134252Y424803
Y440551
Y451772
X122441Y440551
Y432677
X119488Y420866
X104724Y432677
X94882Y424803
X94882Y440551
X94882Y451772
X83071Y440551
Y432677
X80118Y420866
X65354Y432677
X55512Y424803
X55512Y440551
Y451575
X43701Y440551
X48091Y468504
X43110Y475984
X45669Y491732
Y495669
Y499606
X60433Y503543
X60236Y521260
X65354Y524213
X55905Y527165
X45669Y535039
Y518898
X34818Y527165
X32677Y544881
X36220Y546063
X24016Y548819
X65354Y542913
X75787
X78347Y530905
Y527165
X87795Y529528
Y535039
X91339
X87795Y538976
X96850
X104724Y536024
X108661
X111811Y525197
Y521260
X121653Y522047
X123228Y518110
X121653Y514173
X129331Y503543
X124409Y495669
Y490589
X113779Y492323
X114567Y472441
X114961Y468504
X126831
X121850Y475984
X82480
X75197Y472441
X75591Y468504
X87461Y468504
X85039Y491339
Y495669
Y503543
X89961
X99803
X101378Y519291
X99606Y525197
X91339Y526181
X87795Y523622
X90551Y519291
X75197Y514173
X77953Y510630
X80118Y503543
X70473Y492913
X87008Y548819
X90945
X131890Y537992
X61417Y402362
X57480
X53543
X47244Y398425
X136221Y402362
X140157
X155905Y402165
X159843
X157874Y399213
X155905Y396260
X159843
X157874Y405118
X158858Y420866
X161811Y432677
X144095
X154331Y468504
X153937Y472441
X191142Y475984
X196122Y468504
X203543Y451575
Y440551
X191732
X203543Y424803
X213386Y432677
X231102
Y440551
X242913
X242913Y451772
X235492Y468504
X223622Y468504
X223228Y472441
X230512Y475984
X233071Y491339
Y495669
Y503543
X237992
X247835
X249410Y519291
X247638Y525197
X239370Y526181
X235827Y523622
Y529528
Y535039
X239370
X235827Y538976
X244882
X252756Y536024
X256693
X259842Y525197
Y521260
X269685Y522047
X271260Y518110
X269685Y514173
X277362Y503543
X287205
X272441Y495669
Y490589
X261811Y492323
X262598Y472441
X262992Y468504
X274862
X269882Y475984
X270472Y440551
Y432677
X267520Y420866
X266535Y405118
X268504Y402165
X264567
X266535Y399213
X268504Y396260
X264567
X274016Y398425
X280315Y402362
X284252
X288189
X282283Y424803
Y440551
Y451772
X292126Y432677
X252756
X242913Y424803
X228150Y420866
X227165Y405118
X225197Y402165
X229134
X227165Y399213
X225197Y396260
X229134
X234646Y398425
X240945Y402362
X244882
X248819
X209449
X205512
X201575
X195276Y398425
X193701Y491732
Y495669
Y499606
X208465Y503543
X208268Y521260
X213386Y524213
X203937Y527165
X193701Y535039
Y518898
X182850Y527165
X180709Y544881
X184252Y546063
X172047Y548819
X144095Y542913
X136614Y537992
X153937Y522047
X139173Y503543
X228150
X225984Y510630
X223228Y514173
X226378Y527165
Y530905
X223819Y542913
X213386
X235039Y548819
X238976
X238583Y519291
X218504Y492913
X279921Y537992
X284646
X292126Y542913
X301969Y522047
X330881Y527165
X341732Y535039
Y518898
X356299Y521260
X361417Y524213
X351969Y527165
X374410
Y530905
X383858Y529528
Y535039
X387402
X383858Y538976
X392913
X400787Y536024
X404724
X407874Y525197
Y521260
X417717Y522047
X419291Y518110
X417717Y514173
X425394Y503543
X435236
X420472Y495669
Y490589
X409842Y492323
X410630Y472441
X411024Y468504
X422894
X417913Y475984
X418504Y440551
Y432677
X415551Y420866
X414567Y405118
X416535Y402165
X412598
X414567Y399213
X416535Y396260
X412598
X422047Y398425
X428346Y402362
X432283
X436221
X430315Y424803
Y440551
Y451772
X440158Y432677
X400787
X390945Y424803
X390945Y440551
X390945Y451772
X379134Y440551
Y432677
X376181Y420866
X375197Y405118
X373228Y402165
X377165
X375197Y399213
X373228Y396260
X377165
X382677Y398425
X388976Y402362
X392913
X396850
X357480
X353543
X349606
X343307Y398425
X351575Y424803
X351575Y440551
Y451575
X339764Y440551
X361417Y432677
X371654Y468504
X371260Y472441
X378543Y475984
X383524Y468504
X381102Y491339
Y495669
Y503543
X386024
X395866
X397441Y519291
X395669Y525197
X387402Y526181
X383858Y523622
X386614Y519291
X371260Y514173
X374016Y510630
X376181Y503543
X356496
X341732Y499606
Y495669
Y491732
X339173Y475984
X344153Y468504
X302362
X301969Y472441
X309842Y432677
X306890Y420866
X305906Y405118
X303937Y402165
X307874
X305906Y399213
X303937Y396260
X307874
X366536Y492913
X361417Y542913
X371850
X383071Y548819
X387008
X427953Y537992
X432677
X440158Y542913
X332283Y546063
X328740Y544881
X320079Y548819
X450000Y522047
Y472441
X450394Y468504
X457874Y432677
X454921Y420866
X453937Y405118
X451968Y402165
X455905
X453937Y399213
X451968Y396260
X455905
X420472Y557480
X400787Y555315
Y571063
X395866Y574409
X420472Y582283
X426378Y585236
X430709Y580709
X435236Y605905
X400000Y610630
X396063
X392126
Y614961
X396063
X400000
Y619291
X396063
X392126
X387402
X383465
X379528
Y614961
X383465
X387402
Y610630
X383465
X379528
X384055Y599016
X361417Y596594
Y601594
X353150Y585236
X333858Y569488
X326969Y574409
X326969Y606299
X330709
X372244Y555315
X272441Y557480
X252756Y555315
Y571063
X247835Y574409
X272441Y582283
X278346Y585236
X282677Y580709
X287205Y605905
X251969Y610630
X248031
X244094
Y614961
X248031
X251969
Y619291
X248031
X244094
X239370
X235433
X231496
Y614961
X235433
X239370
Y610630
X235433
X231496
X236024Y599016
X213386Y596594
Y601594
X205118Y585236
X185827Y569488
X178937Y574409
X178937Y606299
X182677
X139173Y605905
X224213Y555315
X124409Y557480
X104724Y555315
Y571063
X99803Y574409
X124409Y582283
X130315Y585236
X134646Y580709
X103937Y610630
X100000
X96063
Y614961
X100000
X103937
Y619291
X100000
X96063
X91339
X87402
X83465
Y614961
X87402
X91339
Y610630
X87402
X83465
X87992Y599016
X65354Y596594
Y601594
X57087Y585236
X37795Y569488
X30906Y574409
X30906Y606299
X34646
X76181Y555315
T02
X25984Y90531
Y95531
Y100531
Y105532
X174016
Y100531
Y95531
Y90531
X322047
Y95531
Y100531
Y105532
X457480Y586594
Y591595
Y596594
Y601594
X309449
Y596594
Y591595
Y586594
X161417
Y591595
Y596594
Y601594
T03
X158661Y181457
Y191457
Y201457
Y211457
X306693
Y201457
Y191457
Y181457
X454724
Y191457
Y201457
Y211457
X28740Y480669
Y490669
Y500669
Y510669
X176772
Y500669
Y490669
Y480669
X324803
Y490669
Y500669
Y510669
T04
X344488Y330315
X383858
X423228
X435039Y361811
X395669
X356299
X287008
X247638
X208268
X196457Y330315
X235827
X275197
X138976Y361811
X99606
X60236
X48425Y330315
X87795
X127165
M30
