%FSLAX25Y25*%
%MOIN*%
G70*
G01*
G75*
G04 Layer_Color=8388736*
%ADD10C,0.03937*%
%ADD11R,0.02165X0.02854*%
%ADD12R,0.02165X0.02510*%
%ADD13R,0.04921X0.02559*%
%ADD14R,0.02362X0.05512*%
%ADD15R,0.03937X0.04331*%
%ADD16R,0.01181X0.02559*%
%ADD17R,0.05906X0.05118*%
%ADD18R,0.02559X0.03819*%
%ADD19R,0.08661X0.04724*%
%ADD20R,0.08661X0.13780*%
%ADD21R,0.07874X0.11811*%
%ADD22R,0.15354X0.05709*%
%ADD23R,0.09646X0.05512*%
%ADD24R,0.01181X0.03150*%
%ADD25R,0.15748X0.15748*%
%ADD26R,0.10630X0.06299*%
%ADD27R,0.04724X0.15748*%
%ADD28C,0.00800*%
%ADD29C,0.01500*%
%ADD30C,0.02000*%
%ADD31R,0.15355X0.18110*%
%ADD32R,0.23622X0.23622*%
%ADD33R,0.03937X0.03937*%
%ADD34C,0.08032*%
%ADD35R,0.08032X0.08032*%
%ADD36C,0.02800*%
%ADD37C,0.02799*%
%ADD38R,0.12598X0.07087*%
%ADD39R,0.01969X0.02756*%
%ADD40R,0.04331X0.09134*%
%ADD41R,0.02953X0.05433*%
%ADD42R,0.08583X0.06378*%
%ADD43R,0.07480X0.01575*%
%ADD44R,0.04724X0.01181*%
%ADD45R,0.01181X0.04724*%
%ADD46R,0.09843X0.06693*%
%ADD47R,0.01772X0.01969*%
%ADD48R,0.07992X0.07165*%
%ADD49C,0.00500*%
%ADD50C,0.01969*%
%ADD51R,0.15551X0.18307*%
%ADD52C,0.05906*%
%ADD53R,0.02365X0.03054*%
%ADD54R,0.02365X0.02710*%
%ADD55R,0.05121X0.02759*%
%ADD56R,0.02562X0.05712*%
%ADD57R,0.04137X0.04531*%
%ADD58R,0.01381X0.02759*%
%ADD59R,0.06106X0.05318*%
%ADD60R,0.02759X0.04019*%
%ADD61R,0.08861X0.04924*%
%ADD62R,0.08861X0.13979*%
%ADD63R,0.08074X0.12011*%
%ADD64R,0.15554X0.05909*%
%ADD65R,0.09846X0.05712*%
%ADD66R,0.01381X0.03350*%
%ADD67C,0.04137*%
%ADD68R,0.15948X0.15948*%
%ADD69R,0.10830X0.06499*%
%ADD70R,0.04924X0.15948*%
%ADD71R,0.23822X0.23822*%
%ADD72R,0.04137X0.04137*%
%ADD73C,0.08232*%
%ADD74R,0.08232X0.08232*%
D51*
X90846Y279134D02*
D03*
X123720Y304724D02*
D03*
X130217Y279134D02*
D03*
X84350Y304724D02*
D03*
X44980Y304724D02*
D03*
X51476Y279134D02*
D03*
X238878Y279134D02*
D03*
X271752Y304724D02*
D03*
X278248Y279134D02*
D03*
X232382Y304724D02*
D03*
X193012Y304724D02*
D03*
X199508Y279134D02*
D03*
X386909Y279134D02*
D03*
X419783Y304724D02*
D03*
X426279Y279134D02*
D03*
X380413Y304724D02*
D03*
X341043Y304724D02*
D03*
X347539Y279134D02*
D03*
X392618Y412992D02*
D03*
X359744Y387402D02*
D03*
X353248Y412992D02*
D03*
X399114Y387402D02*
D03*
X438484Y387402D02*
D03*
X431988Y412992D02*
D03*
X244587Y412992D02*
D03*
X211713Y387402D02*
D03*
X205217Y412992D02*
D03*
X251083Y387402D02*
D03*
X290453Y387402D02*
D03*
X283957Y412992D02*
D03*
X96555Y412992D02*
D03*
X63681Y387402D02*
D03*
X57185Y412992D02*
D03*
X103051Y387402D02*
D03*
X142421Y387402D02*
D03*
X135925Y412992D02*
D03*
D52*
X473622Y35433D02*
D03*
X9843D02*
D03*
Y656693D02*
D03*
X39370Y12795D02*
D03*
X444095D02*
D03*
D53*
X99606Y281618D02*
D03*
Y271507D02*
D03*
Y286761D02*
D03*
X114961Y302240D02*
D03*
Y312351D02*
D03*
Y297097D02*
D03*
X138976Y281618D02*
D03*
Y271507D02*
D03*
Y286761D02*
D03*
X75590Y302240D02*
D03*
Y312351D02*
D03*
Y297097D02*
D03*
X36220Y302240D02*
D03*
Y312351D02*
D03*
Y297097D02*
D03*
X60236Y281618D02*
D03*
Y271507D02*
D03*
Y286761D02*
D03*
X247638Y281618D02*
D03*
Y271507D02*
D03*
Y286761D02*
D03*
X262992Y302240D02*
D03*
Y312351D02*
D03*
Y297097D02*
D03*
X287008Y281618D02*
D03*
Y271507D02*
D03*
Y286761D02*
D03*
X223622Y302240D02*
D03*
Y312351D02*
D03*
Y297097D02*
D03*
X184252Y302240D02*
D03*
Y312351D02*
D03*
Y297097D02*
D03*
X208268Y281618D02*
D03*
Y271507D02*
D03*
Y286761D02*
D03*
X395669Y281618D02*
D03*
Y271507D02*
D03*
Y286761D02*
D03*
X411024Y302240D02*
D03*
Y312351D02*
D03*
Y297097D02*
D03*
X435039Y281618D02*
D03*
Y271507D02*
D03*
Y286761D02*
D03*
X371654Y302240D02*
D03*
Y312351D02*
D03*
Y297097D02*
D03*
X332283Y302240D02*
D03*
Y312351D02*
D03*
Y297097D02*
D03*
X356299Y281618D02*
D03*
Y271507D02*
D03*
Y286761D02*
D03*
X383858Y410508D02*
D03*
Y420619D02*
D03*
Y405365D02*
D03*
X368504Y389886D02*
D03*
Y379775D02*
D03*
Y395028D02*
D03*
X344488Y410508D02*
D03*
Y420619D02*
D03*
Y405365D02*
D03*
X407874Y389886D02*
D03*
Y379775D02*
D03*
Y395028D02*
D03*
X447244Y389886D02*
D03*
Y379775D02*
D03*
Y395028D02*
D03*
X423228Y410508D02*
D03*
Y420619D02*
D03*
Y405365D02*
D03*
X235827Y410508D02*
D03*
Y420619D02*
D03*
Y405365D02*
D03*
X220472Y389886D02*
D03*
Y379775D02*
D03*
Y395028D02*
D03*
X196457Y410508D02*
D03*
Y420619D02*
D03*
Y405365D02*
D03*
X259842Y389886D02*
D03*
Y379775D02*
D03*
Y395028D02*
D03*
X299213Y389886D02*
D03*
Y379775D02*
D03*
Y395028D02*
D03*
X275197Y410508D02*
D03*
Y420619D02*
D03*
Y405365D02*
D03*
X87795Y410508D02*
D03*
Y420619D02*
D03*
Y405365D02*
D03*
X72441Y389886D02*
D03*
Y379775D02*
D03*
Y395028D02*
D03*
X48425Y410508D02*
D03*
Y420619D02*
D03*
Y405365D02*
D03*
X111811Y389886D02*
D03*
Y379775D02*
D03*
Y395028D02*
D03*
X151181Y389886D02*
D03*
Y379775D02*
D03*
Y395028D02*
D03*
X127165Y410508D02*
D03*
Y420619D02*
D03*
Y405365D02*
D03*
D54*
X99606Y276648D02*
D03*
X114961Y307211D02*
D03*
X138976Y276648D02*
D03*
X75590Y307211D02*
D03*
X36220D02*
D03*
X60236Y276648D02*
D03*
X247638D02*
D03*
X262992Y307211D02*
D03*
X287008Y276648D02*
D03*
X223622Y307211D02*
D03*
X184252D02*
D03*
X208268Y276648D02*
D03*
X395669D02*
D03*
X411024Y307211D02*
D03*
X435039Y276648D02*
D03*
X371654Y307211D02*
D03*
X332283D02*
D03*
X356299Y276648D02*
D03*
X383858Y415478D02*
D03*
X368504Y384915D02*
D03*
X344488Y415478D02*
D03*
X407874Y384915D02*
D03*
X447244D02*
D03*
X423228Y415478D02*
D03*
X235827D02*
D03*
X220472Y384915D02*
D03*
X196457Y415478D02*
D03*
X259842Y384915D02*
D03*
X299213D02*
D03*
X275197Y415478D02*
D03*
X87795D02*
D03*
X72441Y384915D02*
D03*
X48425Y415478D02*
D03*
X111811Y384915D02*
D03*
X151181D02*
D03*
X127165Y415478D02*
D03*
D55*
X77165Y271633D02*
D03*
Y276633D02*
D03*
Y286633D02*
D03*
Y281633D02*
D03*
X137402Y312225D02*
D03*
Y307225D02*
D03*
Y297225D02*
D03*
Y302225D02*
D03*
X116535Y271633D02*
D03*
Y276633D02*
D03*
Y286633D02*
D03*
Y281633D02*
D03*
X98032Y312225D02*
D03*
Y307225D02*
D03*
Y297225D02*
D03*
Y302225D02*
D03*
X58661Y312225D02*
D03*
Y307225D02*
D03*
Y297225D02*
D03*
Y302225D02*
D03*
X37795Y271633D02*
D03*
Y276633D02*
D03*
Y286633D02*
D03*
Y281633D02*
D03*
X225197Y271633D02*
D03*
Y276633D02*
D03*
Y286633D02*
D03*
Y281633D02*
D03*
X285433Y312225D02*
D03*
Y307225D02*
D03*
Y297225D02*
D03*
Y302225D02*
D03*
X264567Y271633D02*
D03*
Y276633D02*
D03*
Y286633D02*
D03*
Y281633D02*
D03*
X246063Y312225D02*
D03*
Y307225D02*
D03*
Y297225D02*
D03*
Y302225D02*
D03*
X206693Y312225D02*
D03*
Y307225D02*
D03*
Y297225D02*
D03*
Y302225D02*
D03*
X185827Y271633D02*
D03*
Y276633D02*
D03*
Y286633D02*
D03*
Y281633D02*
D03*
X373228Y271633D02*
D03*
Y276633D02*
D03*
Y286633D02*
D03*
Y281633D02*
D03*
X433465Y312225D02*
D03*
Y307225D02*
D03*
Y297225D02*
D03*
Y302225D02*
D03*
X412598Y271633D02*
D03*
Y276633D02*
D03*
Y286633D02*
D03*
Y281633D02*
D03*
X394094Y312225D02*
D03*
Y307225D02*
D03*
Y297225D02*
D03*
Y302225D02*
D03*
X354724Y312225D02*
D03*
Y307225D02*
D03*
Y297225D02*
D03*
Y302225D02*
D03*
X333858Y271633D02*
D03*
Y276633D02*
D03*
Y286633D02*
D03*
Y281633D02*
D03*
X406299Y420493D02*
D03*
Y415493D02*
D03*
Y405493D02*
D03*
Y410493D02*
D03*
X346063Y379901D02*
D03*
Y384901D02*
D03*
Y394901D02*
D03*
Y389901D02*
D03*
X366929Y420493D02*
D03*
Y415493D02*
D03*
Y405493D02*
D03*
Y410493D02*
D03*
X385433Y379901D02*
D03*
Y384901D02*
D03*
Y394901D02*
D03*
Y389901D02*
D03*
X424803Y379901D02*
D03*
Y384901D02*
D03*
Y394901D02*
D03*
Y389901D02*
D03*
X445669Y420493D02*
D03*
Y415493D02*
D03*
Y405493D02*
D03*
Y410493D02*
D03*
X258268Y420493D02*
D03*
Y415493D02*
D03*
Y405493D02*
D03*
Y410493D02*
D03*
X198031Y379901D02*
D03*
Y384901D02*
D03*
Y394901D02*
D03*
Y389901D02*
D03*
X218898Y420493D02*
D03*
Y415493D02*
D03*
Y405493D02*
D03*
Y410493D02*
D03*
X237402Y379901D02*
D03*
Y384901D02*
D03*
Y394901D02*
D03*
Y389901D02*
D03*
X276772Y379901D02*
D03*
Y384901D02*
D03*
Y394901D02*
D03*
Y389901D02*
D03*
X297638Y420493D02*
D03*
Y415493D02*
D03*
Y405493D02*
D03*
Y410493D02*
D03*
X110236Y420493D02*
D03*
Y415493D02*
D03*
Y405493D02*
D03*
Y410493D02*
D03*
X50000Y379901D02*
D03*
Y384901D02*
D03*
Y394901D02*
D03*
Y389901D02*
D03*
X70866Y420493D02*
D03*
Y415493D02*
D03*
Y405493D02*
D03*
Y410493D02*
D03*
X89370Y379901D02*
D03*
Y384901D02*
D03*
Y394901D02*
D03*
Y389901D02*
D03*
X128740Y379901D02*
D03*
Y384901D02*
D03*
Y394901D02*
D03*
Y389901D02*
D03*
X149606Y420493D02*
D03*
Y415493D02*
D03*
Y405493D02*
D03*
Y410493D02*
D03*
D56*
X144311Y209646D02*
D03*
X139311D02*
D03*
X134311D02*
D03*
X129311D02*
D03*
Y230512D02*
D03*
X134311D02*
D03*
X139311D02*
D03*
X144311D02*
D03*
X104941Y209646D02*
D03*
X99941D02*
D03*
X94941D02*
D03*
X89941D02*
D03*
Y230512D02*
D03*
X94941D02*
D03*
X99941D02*
D03*
X104941D02*
D03*
X65571Y209646D02*
D03*
X60571D02*
D03*
X55571D02*
D03*
X50571D02*
D03*
Y230512D02*
D03*
X55571D02*
D03*
X60571D02*
D03*
X65571D02*
D03*
X292342Y209646D02*
D03*
X287343D02*
D03*
X282343D02*
D03*
X277343D02*
D03*
Y230512D02*
D03*
X282343D02*
D03*
X287343D02*
D03*
X292342D02*
D03*
X252972Y209646D02*
D03*
X247972D02*
D03*
X242972D02*
D03*
X237972D02*
D03*
Y230512D02*
D03*
X242972D02*
D03*
X247972D02*
D03*
X252972D02*
D03*
X213602Y209646D02*
D03*
X208602D02*
D03*
X203602D02*
D03*
X198602D02*
D03*
Y230512D02*
D03*
X203602D02*
D03*
X208602D02*
D03*
X213602D02*
D03*
X440374Y209646D02*
D03*
X435374D02*
D03*
X430374D02*
D03*
X425374D02*
D03*
Y230512D02*
D03*
X430374D02*
D03*
X435374D02*
D03*
X440374D02*
D03*
X401004Y209646D02*
D03*
X396004D02*
D03*
X391004D02*
D03*
X386004D02*
D03*
Y230512D02*
D03*
X391004D02*
D03*
X396004D02*
D03*
X401004D02*
D03*
X361634Y209646D02*
D03*
X356634D02*
D03*
X351634D02*
D03*
X346634D02*
D03*
Y230512D02*
D03*
X351634D02*
D03*
X356634D02*
D03*
X361634D02*
D03*
X339154Y482480D02*
D03*
X344153D02*
D03*
X349153D02*
D03*
X354153D02*
D03*
Y461614D02*
D03*
X349153D02*
D03*
X344153D02*
D03*
X339154D02*
D03*
X378524Y482480D02*
D03*
X383524D02*
D03*
X388524D02*
D03*
X393524D02*
D03*
Y461614D02*
D03*
X388524D02*
D03*
X383524D02*
D03*
X378524D02*
D03*
X417894Y482480D02*
D03*
X422894D02*
D03*
X427894D02*
D03*
X432894D02*
D03*
Y461614D02*
D03*
X427894D02*
D03*
X422894D02*
D03*
X417894D02*
D03*
X191122Y482480D02*
D03*
X196122D02*
D03*
X201122D02*
D03*
X206122D02*
D03*
Y461614D02*
D03*
X201122D02*
D03*
X196122D02*
D03*
X191122D02*
D03*
X230492Y482480D02*
D03*
X235492D02*
D03*
X240492D02*
D03*
X245492D02*
D03*
Y461614D02*
D03*
X240492D02*
D03*
X235492D02*
D03*
X230492D02*
D03*
X269862Y482480D02*
D03*
X274862D02*
D03*
X279862D02*
D03*
X284862D02*
D03*
Y461614D02*
D03*
X279862D02*
D03*
X274862D02*
D03*
X269862D02*
D03*
X43091Y482480D02*
D03*
X48091D02*
D03*
X53091D02*
D03*
X58091D02*
D03*
Y461614D02*
D03*
X53091D02*
D03*
X48091D02*
D03*
X43091D02*
D03*
X82461Y482480D02*
D03*
X87461D02*
D03*
X92461D02*
D03*
X97461D02*
D03*
Y461614D02*
D03*
X92461D02*
D03*
X87461D02*
D03*
X82461D02*
D03*
X121831Y482480D02*
D03*
X126831D02*
D03*
X131831D02*
D03*
X136831D02*
D03*
Y461614D02*
D03*
X131831D02*
D03*
X126831D02*
D03*
X121831D02*
D03*
D57*
X146653Y247047D02*
D03*
Y240354D02*
D03*
X136811Y247047D02*
D03*
Y240354D02*
D03*
Y256102D02*
D03*
Y262795D02*
D03*
X126969Y247047D02*
D03*
Y240354D02*
D03*
X117126Y247047D02*
D03*
Y240354D02*
D03*
X87598Y247047D02*
D03*
Y240354D02*
D03*
X77756Y247047D02*
D03*
Y240354D02*
D03*
X107283Y247047D02*
D03*
Y240354D02*
D03*
X97441Y247047D02*
D03*
Y240354D02*
D03*
Y256102D02*
D03*
Y262795D02*
D03*
X48228Y247047D02*
D03*
Y240354D02*
D03*
X38386Y247047D02*
D03*
Y240354D02*
D03*
X58071Y256102D02*
D03*
Y262795D02*
D03*
Y247047D02*
D03*
Y240354D02*
D03*
X67913Y247047D02*
D03*
Y240354D02*
D03*
X117126Y215551D02*
D03*
Y208858D02*
D03*
X126969Y193110D02*
D03*
Y199803D02*
D03*
X136811Y193110D02*
D03*
Y199803D02*
D03*
X146653Y193110D02*
D03*
Y199803D02*
D03*
X77756Y215551D02*
D03*
Y208858D02*
D03*
X87598Y193110D02*
D03*
Y199803D02*
D03*
X97441Y193110D02*
D03*
Y199803D02*
D03*
X107283Y193110D02*
D03*
Y199803D02*
D03*
X38386Y215551D02*
D03*
Y208858D02*
D03*
X48228Y193110D02*
D03*
Y199803D02*
D03*
X58071Y193110D02*
D03*
Y199803D02*
D03*
X67913Y193110D02*
D03*
Y199803D02*
D03*
X38386Y98622D02*
D03*
Y105315D02*
D03*
X126969Y136811D02*
D03*
Y130118D02*
D03*
X136811Y136811D02*
D03*
Y130118D02*
D03*
X117126Y136811D02*
D03*
Y130118D02*
D03*
X126969Y121063D02*
D03*
Y114370D02*
D03*
X146653Y145866D02*
D03*
Y152559D02*
D03*
X136811Y145866D02*
D03*
Y152559D02*
D03*
X126969Y145866D02*
D03*
Y152559D02*
D03*
X77756Y121063D02*
D03*
Y114370D02*
D03*
X67913Y121063D02*
D03*
Y114370D02*
D03*
X97441Y121063D02*
D03*
Y114370D02*
D03*
X107283Y121063D02*
D03*
Y114370D02*
D03*
X117126Y121063D02*
D03*
Y114370D02*
D03*
X294685Y247047D02*
D03*
Y240354D02*
D03*
X284842Y247047D02*
D03*
Y240354D02*
D03*
Y256102D02*
D03*
Y262795D02*
D03*
X275000Y247047D02*
D03*
Y240354D02*
D03*
X265158Y247047D02*
D03*
Y240354D02*
D03*
X235630Y247047D02*
D03*
Y240354D02*
D03*
X225787Y247047D02*
D03*
Y240354D02*
D03*
X255315Y247047D02*
D03*
Y240354D02*
D03*
X245472Y247047D02*
D03*
Y240354D02*
D03*
Y256102D02*
D03*
Y262795D02*
D03*
X196260Y247047D02*
D03*
Y240354D02*
D03*
X186417Y247047D02*
D03*
Y240354D02*
D03*
X206102Y256102D02*
D03*
Y262795D02*
D03*
Y247047D02*
D03*
Y240354D02*
D03*
X215945Y247047D02*
D03*
Y240354D02*
D03*
X265158Y215551D02*
D03*
Y208858D02*
D03*
X275000Y193110D02*
D03*
Y199803D02*
D03*
X284842Y193110D02*
D03*
Y199803D02*
D03*
X294685Y193110D02*
D03*
Y199803D02*
D03*
X225787Y215551D02*
D03*
Y208858D02*
D03*
X235630Y193110D02*
D03*
Y199803D02*
D03*
X245472Y193110D02*
D03*
Y199803D02*
D03*
X255315Y193110D02*
D03*
Y199803D02*
D03*
X186417Y215551D02*
D03*
Y208858D02*
D03*
X196260Y193110D02*
D03*
Y199803D02*
D03*
X206102Y193110D02*
D03*
Y199803D02*
D03*
X215945Y193110D02*
D03*
Y199803D02*
D03*
X186417Y98622D02*
D03*
Y105315D02*
D03*
X275000Y136811D02*
D03*
Y130118D02*
D03*
X284842Y136811D02*
D03*
Y130118D02*
D03*
X265158Y136811D02*
D03*
Y130118D02*
D03*
X275000Y121063D02*
D03*
Y114370D02*
D03*
X294685Y145866D02*
D03*
Y152559D02*
D03*
X284842Y145866D02*
D03*
Y152559D02*
D03*
X275000Y145866D02*
D03*
Y152559D02*
D03*
X225787Y121063D02*
D03*
Y114370D02*
D03*
X215945Y121063D02*
D03*
Y114370D02*
D03*
X245472Y121063D02*
D03*
Y114370D02*
D03*
X255315Y121063D02*
D03*
Y114370D02*
D03*
X265158Y121063D02*
D03*
Y114370D02*
D03*
X442717Y247047D02*
D03*
Y240354D02*
D03*
X432874Y247047D02*
D03*
Y240354D02*
D03*
Y256102D02*
D03*
Y262795D02*
D03*
X423032Y247047D02*
D03*
Y240354D02*
D03*
X413189Y247047D02*
D03*
Y240354D02*
D03*
X383661Y247047D02*
D03*
Y240354D02*
D03*
X373819Y247047D02*
D03*
Y240354D02*
D03*
X403346Y247047D02*
D03*
Y240354D02*
D03*
X393504Y247047D02*
D03*
Y240354D02*
D03*
Y256102D02*
D03*
Y262795D02*
D03*
X344291Y247047D02*
D03*
Y240354D02*
D03*
X334449Y247047D02*
D03*
Y240354D02*
D03*
X354134Y256102D02*
D03*
Y262795D02*
D03*
Y247047D02*
D03*
Y240354D02*
D03*
X363976Y247047D02*
D03*
Y240354D02*
D03*
X413189Y215551D02*
D03*
Y208858D02*
D03*
X423032Y193110D02*
D03*
Y199803D02*
D03*
X432874Y193110D02*
D03*
Y199803D02*
D03*
X442717Y193110D02*
D03*
Y199803D02*
D03*
X373819Y215551D02*
D03*
Y208858D02*
D03*
X383661Y193110D02*
D03*
Y199803D02*
D03*
X393504Y193110D02*
D03*
Y199803D02*
D03*
X403346Y193110D02*
D03*
Y199803D02*
D03*
X334449Y215551D02*
D03*
Y208858D02*
D03*
X344291Y193110D02*
D03*
Y199803D02*
D03*
X354134Y193110D02*
D03*
Y199803D02*
D03*
X363976Y193110D02*
D03*
Y199803D02*
D03*
X334449Y98622D02*
D03*
Y105315D02*
D03*
X423032Y136811D02*
D03*
Y130118D02*
D03*
X432874Y136811D02*
D03*
Y130118D02*
D03*
X413189Y136811D02*
D03*
Y130118D02*
D03*
X423032Y121063D02*
D03*
Y114370D02*
D03*
X442717Y145866D02*
D03*
Y152559D02*
D03*
X432874Y145866D02*
D03*
Y152559D02*
D03*
X423032Y145866D02*
D03*
Y152559D02*
D03*
X373819Y121063D02*
D03*
Y114370D02*
D03*
X363976Y121063D02*
D03*
Y114370D02*
D03*
X393504Y121063D02*
D03*
Y114370D02*
D03*
X403346Y121063D02*
D03*
Y114370D02*
D03*
X413189Y121063D02*
D03*
Y114370D02*
D03*
X336811Y445079D02*
D03*
Y451772D02*
D03*
X346654Y445079D02*
D03*
Y451772D02*
D03*
Y436024D02*
D03*
Y429331D02*
D03*
X356496Y445079D02*
D03*
Y451772D02*
D03*
X366339Y445079D02*
D03*
Y451772D02*
D03*
X395866Y445079D02*
D03*
Y451772D02*
D03*
X405709Y445079D02*
D03*
Y451772D02*
D03*
X376181Y445079D02*
D03*
Y451772D02*
D03*
X386024Y445079D02*
D03*
Y451772D02*
D03*
Y436024D02*
D03*
Y429331D02*
D03*
X435236Y445079D02*
D03*
Y451772D02*
D03*
X445079Y445079D02*
D03*
Y451772D02*
D03*
X425394Y436024D02*
D03*
Y429331D02*
D03*
Y445079D02*
D03*
Y451772D02*
D03*
X415551Y445079D02*
D03*
Y451772D02*
D03*
X366339Y476575D02*
D03*
Y483268D02*
D03*
X356496Y499016D02*
D03*
Y492323D02*
D03*
X346654Y499016D02*
D03*
Y492323D02*
D03*
X336811Y499016D02*
D03*
Y492323D02*
D03*
X405709Y476575D02*
D03*
Y483268D02*
D03*
X395866Y499016D02*
D03*
Y492323D02*
D03*
X386024Y499016D02*
D03*
Y492323D02*
D03*
X376181Y499016D02*
D03*
Y492323D02*
D03*
X445079Y476575D02*
D03*
Y483268D02*
D03*
X435236Y499016D02*
D03*
Y492323D02*
D03*
X425394Y499016D02*
D03*
Y492323D02*
D03*
X415551Y499016D02*
D03*
Y492323D02*
D03*
X445079Y593504D02*
D03*
Y586811D02*
D03*
X356496Y555315D02*
D03*
Y562008D02*
D03*
X346654Y555315D02*
D03*
Y562008D02*
D03*
X366339Y555315D02*
D03*
Y562008D02*
D03*
X356496Y571063D02*
D03*
Y577756D02*
D03*
X336811Y546260D02*
D03*
Y539567D02*
D03*
X346654Y546260D02*
D03*
Y539567D02*
D03*
X356496Y546260D02*
D03*
Y539567D02*
D03*
X405709Y571063D02*
D03*
Y577756D02*
D03*
X415551Y571063D02*
D03*
Y577756D02*
D03*
X386024Y571063D02*
D03*
Y577756D02*
D03*
X376181Y571063D02*
D03*
Y577756D02*
D03*
X366339Y571063D02*
D03*
Y577756D02*
D03*
X188779Y445079D02*
D03*
Y451772D02*
D03*
X198622Y445079D02*
D03*
Y451772D02*
D03*
Y436024D02*
D03*
Y429331D02*
D03*
X208465Y445079D02*
D03*
Y451772D02*
D03*
X218307Y445079D02*
D03*
Y451772D02*
D03*
X247835Y445079D02*
D03*
Y451772D02*
D03*
X257677Y445079D02*
D03*
Y451772D02*
D03*
X228150Y445079D02*
D03*
Y451772D02*
D03*
X237992Y445079D02*
D03*
Y451772D02*
D03*
Y436024D02*
D03*
Y429331D02*
D03*
X287205Y445079D02*
D03*
Y451772D02*
D03*
X297047Y445079D02*
D03*
Y451772D02*
D03*
X277362Y436024D02*
D03*
Y429331D02*
D03*
Y445079D02*
D03*
Y451772D02*
D03*
X267520Y445079D02*
D03*
Y451772D02*
D03*
X218307Y476575D02*
D03*
Y483268D02*
D03*
X208465Y499016D02*
D03*
Y492323D02*
D03*
X198622Y499016D02*
D03*
Y492323D02*
D03*
X188779Y499016D02*
D03*
Y492323D02*
D03*
X257677Y476575D02*
D03*
Y483268D02*
D03*
X247835Y499016D02*
D03*
Y492323D02*
D03*
X237992Y499016D02*
D03*
Y492323D02*
D03*
X228150Y499016D02*
D03*
Y492323D02*
D03*
X297047Y476575D02*
D03*
Y483268D02*
D03*
X287205Y499016D02*
D03*
Y492323D02*
D03*
X277362Y499016D02*
D03*
Y492323D02*
D03*
X267520Y499016D02*
D03*
Y492323D02*
D03*
X297047Y593504D02*
D03*
Y586811D02*
D03*
X208465Y555315D02*
D03*
Y562008D02*
D03*
X198622Y555315D02*
D03*
Y562008D02*
D03*
X218307Y555315D02*
D03*
Y562008D02*
D03*
X208465Y571063D02*
D03*
Y577756D02*
D03*
X188779Y546260D02*
D03*
Y539567D02*
D03*
X198622Y546260D02*
D03*
Y539567D02*
D03*
X208465Y546260D02*
D03*
Y539567D02*
D03*
X257677Y571063D02*
D03*
Y577756D02*
D03*
X267520Y571063D02*
D03*
Y577756D02*
D03*
X237992Y571063D02*
D03*
Y577756D02*
D03*
X228150Y571063D02*
D03*
Y577756D02*
D03*
X218307Y571063D02*
D03*
Y577756D02*
D03*
X40748Y445079D02*
D03*
Y451772D02*
D03*
X50591Y445079D02*
D03*
Y451772D02*
D03*
Y436024D02*
D03*
Y429331D02*
D03*
X60433Y445079D02*
D03*
Y451772D02*
D03*
X70276Y445079D02*
D03*
Y451772D02*
D03*
X99803Y445079D02*
D03*
Y451772D02*
D03*
X109646Y445079D02*
D03*
Y451772D02*
D03*
X80118Y445079D02*
D03*
Y451772D02*
D03*
X89961Y445079D02*
D03*
Y451772D02*
D03*
Y436024D02*
D03*
Y429331D02*
D03*
X139173Y445079D02*
D03*
Y451772D02*
D03*
X149016Y445079D02*
D03*
Y451772D02*
D03*
X129331Y436024D02*
D03*
Y429331D02*
D03*
Y445079D02*
D03*
Y451772D02*
D03*
X119488Y445079D02*
D03*
Y451772D02*
D03*
X70276Y476575D02*
D03*
Y483268D02*
D03*
X60433Y499016D02*
D03*
Y492323D02*
D03*
X50591Y499016D02*
D03*
Y492323D02*
D03*
X40748Y499016D02*
D03*
Y492323D02*
D03*
X109646Y476575D02*
D03*
Y483268D02*
D03*
X99803Y499016D02*
D03*
Y492323D02*
D03*
X89961Y499016D02*
D03*
Y492323D02*
D03*
X80118Y499016D02*
D03*
Y492323D02*
D03*
X149016Y476575D02*
D03*
Y483268D02*
D03*
X139173Y499016D02*
D03*
Y492323D02*
D03*
X129331Y499016D02*
D03*
Y492323D02*
D03*
X119488Y499016D02*
D03*
Y492323D02*
D03*
X149016Y593504D02*
D03*
Y586811D02*
D03*
X60433Y555315D02*
D03*
Y562008D02*
D03*
X50591Y555315D02*
D03*
Y562008D02*
D03*
X70276Y555315D02*
D03*
Y562008D02*
D03*
X60433Y571063D02*
D03*
Y577756D02*
D03*
X40748Y546260D02*
D03*
Y539567D02*
D03*
X50591Y546260D02*
D03*
Y539567D02*
D03*
X60433Y546260D02*
D03*
Y539567D02*
D03*
X109646Y571063D02*
D03*
Y577756D02*
D03*
X119488Y571063D02*
D03*
Y577756D02*
D03*
X89961Y571063D02*
D03*
Y577756D02*
D03*
X80118Y571063D02*
D03*
Y577756D02*
D03*
X70276Y571063D02*
D03*
Y577756D02*
D03*
D58*
X146653Y256791D02*
D03*
Y262106D02*
D03*
X126969Y256791D02*
D03*
Y262106D02*
D03*
X87598Y256791D02*
D03*
Y262106D02*
D03*
X107283Y256791D02*
D03*
Y262106D02*
D03*
X48228Y256791D02*
D03*
Y262106D02*
D03*
X67913Y256791D02*
D03*
Y262106D02*
D03*
X294685Y256791D02*
D03*
Y262106D02*
D03*
X275000Y256791D02*
D03*
Y262106D02*
D03*
X235630Y256791D02*
D03*
Y262106D02*
D03*
X255315Y256791D02*
D03*
Y262106D02*
D03*
X196260Y256791D02*
D03*
Y262106D02*
D03*
X215945Y256791D02*
D03*
Y262106D02*
D03*
X442717Y256791D02*
D03*
Y262106D02*
D03*
X423032Y256791D02*
D03*
Y262106D02*
D03*
X383661Y256791D02*
D03*
Y262106D02*
D03*
X403346Y256791D02*
D03*
Y262106D02*
D03*
X344291Y256791D02*
D03*
Y262106D02*
D03*
X363976Y256791D02*
D03*
Y262106D02*
D03*
X336811Y435335D02*
D03*
Y430020D02*
D03*
X356496Y435335D02*
D03*
Y430020D02*
D03*
X395866Y435335D02*
D03*
Y430020D02*
D03*
X376181Y435335D02*
D03*
Y430020D02*
D03*
X435236Y435335D02*
D03*
Y430020D02*
D03*
X415551Y435335D02*
D03*
Y430020D02*
D03*
X188779Y435335D02*
D03*
Y430020D02*
D03*
X208465Y435335D02*
D03*
Y430020D02*
D03*
X247835Y435335D02*
D03*
Y430020D02*
D03*
X228150Y435335D02*
D03*
Y430020D02*
D03*
X287205Y435335D02*
D03*
Y430020D02*
D03*
X267520Y435335D02*
D03*
Y430020D02*
D03*
X40748Y435335D02*
D03*
Y430020D02*
D03*
X60433Y435335D02*
D03*
Y430020D02*
D03*
X99803Y435335D02*
D03*
Y430020D02*
D03*
X80118Y435335D02*
D03*
Y430020D02*
D03*
X139173Y435335D02*
D03*
Y430020D02*
D03*
X119488Y435335D02*
D03*
Y430020D02*
D03*
D59*
X117126Y224213D02*
D03*
Y231693D02*
D03*
X77756Y224213D02*
D03*
Y231693D02*
D03*
X38386Y224213D02*
D03*
Y231693D02*
D03*
X48228Y98228D02*
D03*
Y105709D02*
D03*
X136811Y161221D02*
D03*
Y168701D02*
D03*
X265158Y224213D02*
D03*
Y231693D02*
D03*
X225787Y224213D02*
D03*
Y231693D02*
D03*
X186417Y224213D02*
D03*
Y231693D02*
D03*
X196260Y98228D02*
D03*
Y105709D02*
D03*
X284842Y161221D02*
D03*
Y168701D02*
D03*
X413189Y224213D02*
D03*
Y231693D02*
D03*
X373819Y224213D02*
D03*
Y231693D02*
D03*
X334449Y224213D02*
D03*
Y231693D02*
D03*
X344291Y98228D02*
D03*
Y105709D02*
D03*
X432874Y161221D02*
D03*
Y168701D02*
D03*
X366339Y467913D02*
D03*
Y460433D02*
D03*
X405709Y467913D02*
D03*
Y460433D02*
D03*
X445079Y467913D02*
D03*
Y460433D02*
D03*
X435236Y593898D02*
D03*
Y586417D02*
D03*
X346654Y530905D02*
D03*
Y523425D02*
D03*
X218307Y467913D02*
D03*
Y460433D02*
D03*
X257677Y467913D02*
D03*
Y460433D02*
D03*
X297047Y467913D02*
D03*
Y460433D02*
D03*
X287205Y593898D02*
D03*
Y586417D02*
D03*
X198622Y530905D02*
D03*
Y523425D02*
D03*
X70276Y467913D02*
D03*
Y460433D02*
D03*
X109646Y467913D02*
D03*
Y460433D02*
D03*
X149016Y467913D02*
D03*
Y460433D02*
D03*
X139173Y593898D02*
D03*
Y586417D02*
D03*
X50591Y530905D02*
D03*
Y523425D02*
D03*
D60*
X117126Y189606D02*
D03*
Y203307D02*
D03*
X77756Y189606D02*
D03*
Y203307D02*
D03*
X38386Y189606D02*
D03*
Y203307D02*
D03*
X265158Y189606D02*
D03*
Y203307D02*
D03*
X225787Y189606D02*
D03*
Y203307D02*
D03*
X186417Y189606D02*
D03*
Y203307D02*
D03*
X413189Y189606D02*
D03*
Y203307D02*
D03*
X373819Y189606D02*
D03*
Y203307D02*
D03*
X334449Y189606D02*
D03*
Y203307D02*
D03*
X366339Y502520D02*
D03*
Y488819D02*
D03*
X405709Y502520D02*
D03*
Y488819D02*
D03*
X445079Y502520D02*
D03*
Y488819D02*
D03*
X218307Y502520D02*
D03*
Y488819D02*
D03*
X257677Y502520D02*
D03*
Y488819D02*
D03*
X297047Y502520D02*
D03*
Y488819D02*
D03*
X70276Y502520D02*
D03*
Y488819D02*
D03*
X109646Y502520D02*
D03*
Y488819D02*
D03*
X149016Y502520D02*
D03*
Y488819D02*
D03*
D61*
X51575Y134646D02*
D03*
Y116535D02*
D03*
Y125591D02*
D03*
X199606Y134646D02*
D03*
Y116535D02*
D03*
Y125591D02*
D03*
X347638Y134646D02*
D03*
Y116535D02*
D03*
Y125591D02*
D03*
X431890Y557480D02*
D03*
Y575591D02*
D03*
Y566535D02*
D03*
X283858Y557480D02*
D03*
Y575591D02*
D03*
Y566535D02*
D03*
X135827Y557480D02*
D03*
Y575591D02*
D03*
Y566535D02*
D03*
D62*
X27165Y125591D02*
D03*
X175197D02*
D03*
X323228D02*
D03*
X456299Y566535D02*
D03*
X308268D02*
D03*
X160236D02*
D03*
D63*
X87598Y101969D02*
D03*
X99410D02*
D03*
X75787D02*
D03*
X235630D02*
D03*
X247441D02*
D03*
X223819D02*
D03*
X383661D02*
D03*
X395472D02*
D03*
X371850D02*
D03*
X395866Y590158D02*
D03*
X384055D02*
D03*
X407677D02*
D03*
X247835D02*
D03*
X236024D02*
D03*
X259646D02*
D03*
X99803D02*
D03*
X87992D02*
D03*
X111614D02*
D03*
D64*
X156693Y96161D02*
D03*
Y107776D02*
D03*
X304724Y96161D02*
D03*
Y107776D02*
D03*
X452756Y96161D02*
D03*
Y107776D02*
D03*
X326772Y595965D02*
D03*
Y584350D02*
D03*
X178740Y595965D02*
D03*
Y584350D02*
D03*
X30709Y595965D02*
D03*
Y584350D02*
D03*
D65*
X151575Y133465D02*
D03*
X299606D02*
D03*
X447638D02*
D03*
X331890Y558661D02*
D03*
X183858D02*
D03*
X35827D02*
D03*
D66*
X151575Y138583D02*
D03*
X153543D02*
D03*
X155512D02*
D03*
X149606D02*
D03*
X147638D02*
D03*
Y128346D02*
D03*
X149606D02*
D03*
X155512D02*
D03*
X153543D02*
D03*
X151575D02*
D03*
X299606Y138583D02*
D03*
X301575D02*
D03*
X303543D02*
D03*
X297638D02*
D03*
X295669D02*
D03*
Y128346D02*
D03*
X297638D02*
D03*
X303543D02*
D03*
X301575D02*
D03*
X299606D02*
D03*
X447638Y138583D02*
D03*
X449606D02*
D03*
X451575D02*
D03*
X445669D02*
D03*
X443701D02*
D03*
Y128346D02*
D03*
X445669D02*
D03*
X451575D02*
D03*
X449606D02*
D03*
X447638D02*
D03*
X331890Y553543D02*
D03*
X329921D02*
D03*
X327953D02*
D03*
X333858D02*
D03*
X335827D02*
D03*
Y563779D02*
D03*
X333858D02*
D03*
X327953D02*
D03*
X329921D02*
D03*
X331890D02*
D03*
X183858Y553543D02*
D03*
X181890D02*
D03*
X179921D02*
D03*
X185827D02*
D03*
X187795D02*
D03*
Y563779D02*
D03*
X185827D02*
D03*
X179921D02*
D03*
X181890D02*
D03*
X183858D02*
D03*
X35827Y553543D02*
D03*
X33858D02*
D03*
X31890D02*
D03*
X37795D02*
D03*
X39764D02*
D03*
Y563779D02*
D03*
X37795D02*
D03*
X31890D02*
D03*
X33858D02*
D03*
X35827D02*
D03*
D67*
X48228Y180709D02*
D03*
X58071D02*
D03*
X87598D02*
D03*
X97441D02*
D03*
X126969D02*
D03*
X136811D02*
D03*
X196260D02*
D03*
X206102D02*
D03*
X235630D02*
D03*
X245472D02*
D03*
X275000D02*
D03*
X284842D02*
D03*
X344291D02*
D03*
X354134D02*
D03*
X383661D02*
D03*
X393504D02*
D03*
X423032D02*
D03*
X432874D02*
D03*
X435236Y511417D02*
D03*
X425394D02*
D03*
X395866D02*
D03*
X386024D02*
D03*
X356496D02*
D03*
X346654D02*
D03*
X287205D02*
D03*
X277362D02*
D03*
X247835D02*
D03*
X237992D02*
D03*
X208465D02*
D03*
X198622D02*
D03*
X139173D02*
D03*
X129331D02*
D03*
X99803D02*
D03*
X89961D02*
D03*
X60433D02*
D03*
X50591D02*
D03*
X25984Y95531D02*
D03*
Y105532D02*
D03*
Y100531D02*
D03*
X174016Y95531D02*
D03*
Y105532D02*
D03*
Y100531D02*
D03*
X322047Y95531D02*
D03*
Y105532D02*
D03*
Y100531D02*
D03*
X457480Y596594D02*
D03*
Y586594D02*
D03*
Y591595D02*
D03*
X309449Y596594D02*
D03*
Y586594D02*
D03*
Y591595D02*
D03*
X161417Y596594D02*
D03*
Y586594D02*
D03*
Y591595D02*
D03*
D68*
X93701Y62598D02*
D03*
X241732D02*
D03*
X389764D02*
D03*
X389764Y629528D02*
D03*
X241732D02*
D03*
X93701D02*
D03*
D69*
X156496Y159449D02*
D03*
Y170472D02*
D03*
X304528Y159449D02*
D03*
Y170472D02*
D03*
X452559Y159449D02*
D03*
Y170472D02*
D03*
X326969Y532677D02*
D03*
Y521654D02*
D03*
X178937Y532677D02*
D03*
Y521654D02*
D03*
X30906Y532677D02*
D03*
Y521654D02*
D03*
D70*
X130315Y96063D02*
D03*
X57087D02*
D03*
X278346D02*
D03*
X205118D02*
D03*
X426378D02*
D03*
X353150D02*
D03*
Y596063D02*
D03*
X426378D02*
D03*
X205118D02*
D03*
X278346D02*
D03*
X57087D02*
D03*
X130315D02*
D03*
D71*
X87795Y330315D02*
D03*
X127165D02*
D03*
X48425D02*
D03*
X235827D02*
D03*
X275197D02*
D03*
X196457D02*
D03*
X383858D02*
D03*
X423228D02*
D03*
X344488D02*
D03*
X395669Y361811D02*
D03*
X356299D02*
D03*
X435039D02*
D03*
X247638D02*
D03*
X208268D02*
D03*
X287008D02*
D03*
X99606D02*
D03*
X60236D02*
D03*
X138976D02*
D03*
D72*
X25984Y90531D02*
D03*
X174016D02*
D03*
X322047D02*
D03*
X457480Y601594D02*
D03*
X309449D02*
D03*
X161417D02*
D03*
D73*
X158661Y201457D02*
D03*
Y181457D02*
D03*
Y191457D02*
D03*
X306693Y201457D02*
D03*
Y181457D02*
D03*
Y191457D02*
D03*
X454724Y201457D02*
D03*
Y181457D02*
D03*
Y191457D02*
D03*
X324803Y490669D02*
D03*
Y510669D02*
D03*
Y500669D02*
D03*
X176772Y490669D02*
D03*
Y510669D02*
D03*
Y500669D02*
D03*
X28740Y490669D02*
D03*
Y510669D02*
D03*
Y500669D02*
D03*
D74*
X158661Y211457D02*
D03*
X306693D02*
D03*
X454724D02*
D03*
X324803Y480669D02*
D03*
X176772D02*
D03*
X28740D02*
D03*
M02*
